<svg xmlns="http://www.w3.org/2000/svg" xmlns:xlink="http://www.w3.org/1999/xlink" width="208" height="64" viewBox="0 0 208 64">
    <defs>
        <path id="uqobns003a" d="M0 63.255L207.882 63.255 207.882 0 0 0z"/>
    </defs>
    <g fill="none" fill-rule="evenodd">
        <g>
            <path fill="#D7D9DB" d="M169.82 21.93c1.281 8.06 8.573 13.803 16.852 14.173-2.07 7.225-7.096 10.097-13.206 11.764-.59.185-.493.742-.493.742l.986 5.743s.098.463.886.37c21.09-2.224 35.38-17.322 32.718-35.664-2.464-12.69-13.008-17.6-22.764-16.303-9.756 1.483-16.458 10.004-14.979 19.175"/>
            <path fill="#1C2021" d="M3.48 46.38h2.79c1.34 0 2.364-.28 3.074-.84.71-.56 1.066-1.4 1.066-2.52 0-1.14-.356-1.93-1.066-2.37-.71-.44-1.735-.661-3.075-.661H3.48v6.39zm7.23 10.438L6.48 49.14h-3v7.678H0V37.2h6.63c1.02 0 1.97.1 2.85.3.88.2 1.64.525 2.28.974.64.45 1.144 1.047 1.514 1.786.37.74.556 1.66.556 2.76 0 1.5-.356 2.71-1.066 3.63-.71.919-1.655 1.58-2.835 1.98l4.68 8.188h-3.9zM18.149 37.2L29.968 37.2 29.968 40.139 21.628 40.139 21.628 45.149 28.678 45.149 28.678 48.09 21.628 48.09 21.628 53.88 30.269 53.88 30.269 56.819 18.149 56.819zM33.449 47.069c0-1.6.24-3.034.721-4.305.479-1.269 1.139-2.344 1.979-3.224.84-.88 1.83-1.55 2.97-2.01 1.141-.461 2.37-.69 3.69-.69.68 0 1.31.07 1.89.209.58.141 1.11.326 1.59.555.48.231.92.495 1.32.795.401.301.75.611 1.05.93l-1.92 2.16c-.5-.48-1.045-.869-1.635-1.17-.59-.299-1.345-.449-2.264-.449-.881 0-1.676.164-2.386.494-.71.33-1.319.801-1.83 1.41-.51.611-.904 1.356-1.185 2.235-.28.88-.42 1.871-.42 2.97 0 2.24.505 3.996 1.515 5.266 1.01 1.269 2.505 1.904 4.485 1.904.56 0 1.09-.074 1.59-.225.5-.15.91-.365 1.231-.644v-4.231h-3.721V46.2h6.841v8.64c-.681.66-1.571 1.214-2.671 1.665-1.1.449-2.33.674-3.69.674-1.3 0-2.51-.219-3.629-.659-1.121-.44-2.091-1.09-2.911-1.951-.82-.859-1.46-1.92-1.92-3.18-.461-1.259-.69-2.699-.69-4.32"/>
            <mask id="qam8oib55b" fill="#fff">
                <use xlink:href="#uqobns003a"/>
            </mask>
            <path fill="#1C2021" d="M53.489 56.818L56.968 56.818 56.968 37.199 53.489 37.199zM62.818 51.93c.7.66 1.5 1.194 2.4 1.603.901.411 1.8.616 2.701.616 1.12 0 1.97-.23 2.55-.69.58-.46.87-1.07.87-1.83 0-.4-.076-.74-.226-1.019-.149-.28-.359-.526-.63-.736-.269-.21-.59-.405-.96-.585-.37-.179-.775-.36-1.215-.54l-2.7-1.17c-.479-.2-.955-.45-1.425-.75-.469-.299-.895-.66-1.275-1.08-.38-.42-.685-.91-.914-1.469-.23-.56-.346-1.202-.346-1.92 0-.782.165-1.506.495-2.176.33-.67.785-1.254 1.365-1.755.581-.499 1.275-.89 2.085-1.17.81-.28 1.696-.42 2.656-.42 1.14 0 2.24.226 3.3.675 1.06.45 1.97 1.055 2.73 1.814l-1.77 2.221c-.64-.519-1.3-.93-1.98-1.23-.68-.299-1.44-.45-2.28-.45-.94 0-1.69.206-2.25.616-.56.41-.84.974-.84 1.694 0 .38.084.705.255.976.17.27.4.51.69.72.29.21.624.4 1.004.57.38.17.77.335 1.17.495l2.67 1.11c.58.24 1.11.52 1.591.84.48.32.894.688 1.244 1.11.35.42.625.905.825 1.453.2.551.3 1.186.3 1.907 0 .8-.16 1.55-.48 2.25-.32.7-.785 1.314-1.395 1.843-.61.532-1.35.952-2.22 1.261-.87.31-1.855.465-2.955.465-1.319 0-2.595-.25-3.825-.75-1.23-.499-2.315-1.21-3.255-2.13l2.04-2.37zM82.019 40.139L76.349 40.139 76.349 37.2 91.168 37.2 91.168 40.139 85.498 40.139 85.498 56.819 82.019 56.819zM94.619 37.2L106.438 37.2 106.438 40.139 98.098 40.139 98.098 45.149 105.148 45.149 105.148 48.09 98.098 48.09 98.098 53.88 106.739 53.88 106.739 56.819 94.619 56.819zM114.418 46.38h2.79c1.34 0 2.365-.28 3.075-.84.71-.56 1.066-1.4 1.066-2.52 0-1.14-.356-1.93-1.066-2.37-.71-.44-1.735-.661-3.075-.661h-2.79v6.39zm7.23 10.438l-4.23-7.678h-3v7.678h-3.48V37.2h6.63c1.02 0 1.97.1 2.85.3.88.2 1.64.525 2.28.974.64.45 1.145 1.047 1.515 1.786.37.74.556 1.66.556 2.76 0 1.5-.356 2.71-1.066 3.63-.71.919-1.655 1.58-2.835 1.98l4.68 8.188h-3.9zM73.625 27.53c.326.346.712.623 1.155.833.443.21.903.315 1.379.315.607 0 1.078-.137 1.414-.413.336-.275.504-.636.504-1.085 0-.233-.04-.431-.12-.594-.078-.164-.186-.304-.321-.421-.135-.116-.296-.221-.483-.315-.187-.093-.387-.191-.602-.294l-1.316-.574c-.214-.093-.434-.205-.658-.336-.224-.131-.425-.29-.602-.475-.177-.188-.322-.41-.434-.665-.112-.257-.168-.554-.168-.89 0-.345.072-.667.217-.966.144-.3.346-.557.602-.777.256-.22.56-.39.91-.511s.735-.182 1.155-.182c.55 0 1.059.105 1.526.315.466.21.863.483 1.19.819l-.63.756c-.281-.27-.59-.482-.931-.637-.341-.154-.725-.231-1.155-.231-.514 0-.927.119-1.24.357-.312.239-.468.568-.468.988 0 .223.044.412.133.566.089.154.208.29.357.406.149.117.313.22.49.308.177.089.359.17.546.245l1.302.56c.26.112.509.24.742.385.234.145.434.313.602.504.168.192.3.415.399.672.098.257.147.553.147.889 0 .364-.073.705-.217 1.022-.145.318-.353.595-.623.833-.271.239-.598.425-.98.56-.383.136-.817.203-1.302.203-.644 0-1.242-.121-1.792-.363-.551-.244-1.027-.575-1.428-.995l.7-.812zM81.072 20.348L86.364 20.348 86.364 21.327 82.234 21.327 82.234 24.436 85.734 24.436 85.734 25.415 82.234 25.415 82.234 29.532 81.072 29.532zM90.746 28.608c.794 0 1.409-.146 1.849-.441.438-.294.658-.753.658-1.379 0-.569-.215-.987-.645-1.253-.43-.266-1.05-.399-1.862-.399H89.15v3.472h1.596zm-.237-4.34c.793 0 1.36-.136 1.7-.406.34-.271.512-.662.512-1.176 0-.504-.18-.865-.54-1.085-.36-.22-.898-.329-1.617-.329H89.15v2.996h1.359zm-2.521-3.92h2.73c.467 0 .894.042 1.282.126.387.084.718.215.993.392.275.178.49.408.645.693.154.285.23.628.23 1.029 0 .458-.131.871-.392 1.239-.261.369-.663.623-1.204.763v.056c.672.103 1.195.336 1.569.7.373.365.559.864.559 1.498 0 .448-.084.84-.252 1.176-.168.336-.406.616-.714.84-.307.224-.676.393-1.106.504-.43.112-.9.168-1.414.168h-2.926v-9.184zM98.895 28.58h2.044V22h-1.624v-.741c.41-.075.767-.166 1.07-.274.304-.107.576-.235.82-.384h.881v7.979h1.85v.952h-5.04v-.952zM109.003 26.144v-2.59c0-.243.007-.53.02-.86.015-.332.032-.619.05-.862h-.056c-.112.214-.23.424-.35.63-.121.205-.247.415-.378.63l-2.086 3.052h2.8zm2.31.924h-1.218v2.464h-1.092v-2.464h-4.018v-.756l3.822-5.712h1.288v5.544h1.219v.924zM112.811 28.58h2.044V22h-1.624v-.741c.41-.075.767-.166 1.07-.274.304-.107.576-.235.82-.384h.881v7.979h1.85v.952h-5.04v-.952zM119.222 28.846c.673-.672 1.27-1.278 1.792-1.82.523-.54.962-1.043 1.316-1.505.355-.462.625-.887.813-1.275.186-.386.28-.762.28-1.127 0-.512-.14-.932-.42-1.259-.28-.326-.706-.49-1.274-.49-.374 0-.719.105-1.036.315-.318.21-.608.464-.868.763l-.659-.659c.373-.41.771-.739 1.191-.986.42-.247.924-.37 1.511-.37.831 0 1.485.24 1.96.72.476.481.714 1.118.714 1.911 0 .42-.09.843-.272 1.266-.183.425-.435.865-.757 1.317-.32.453-.704.924-1.147 1.414-.444.49-.93 1.011-1.463 1.56.242-.018.494-.037.756-.055.26-.019.508-.029.742-.029h2.59v.995h-5.769v-.686z" mask="url(#qam8oib55b)"/>
            <path fill="#005A8C" d="M135.404 26.533L160.277 22.308 154.763 31.689z" mask="url(#qam8oib55b)"/>
            <path fill="#8D9FC0" d="M149.25 2.092L160.277 22.308 144.935 24.914z" mask="url(#qam8oib55b)"/>
            <path fill="#EA8A73" d="M154.763 31.689L164.467 34.524 169.678 20.706 160.277 22.308z" mask="url(#qam8oib55b)"/>
            <path fill="#A76089" d="M166.18 12.958L160.277 22.309 169.678 20.706z" mask="url(#qam8oib55b)"/>
            <path fill="#BB87A5" d="M179.052 18.53L169.679 20.706 166.18 12.958 174.061 8.743z" mask="url(#qam8oib55b)"/>
            <path fill="#CAA5BC" d="M176.723 39.538L179.174 29.081 179.051 18.53 169.678 20.706z" mask="url(#qam8oib55b)"/>
            <path fill="#E15443" d="M168.088 51.656L174.062 44.832 176.724 39.538 164.468 34.524 162.32 43.354z" mask="url(#qam8oib55b)"/>
            <path fill="#A15581" d="M149.25 2.092L166.181 12.957 160.277 22.308z" mask="url(#qam8oib55b)"/>
            <path fill="#DF483A" d="M169.679 20.706L164.468 34.524 176.724 39.538z" mask="url(#qam8oib55b)"/>
            <path fill="#892062" d="M174.061 8.743L166.18 12.958 149.249 2.093 157.714 0.846 166.68 2.215z" mask="url(#qam8oib55b)"/>
            <path fill="#346998" d="M147.579 39.755L144.087 28.645 135.343 26.18 138.153 33.036z" mask="url(#qam8oib55b)"/>
            <path fill="#EB8B24" d="M156.916 57.956L147.841 55.149 140.291 61.805 147.203 61.805z" mask="url(#qam8oib55b)"/>
            <path fill="#5B7EA8" d="M149.25 2.092l-4.315 22.822-9.531 1.618s-1.2-7.57-1.012-8.003c.185-.43 1.799-6.33 1.799-6.33l6.715-7.427 6.344-2.68z" mask="url(#qam8oib55b)"/>
            <path fill="#7A92B6" d="M147.579 39.755L150.142 39.538 154.699 39.745 155.609 39.785 154.764 31.689 144.087 28.645z" mask="url(#qam8oib55b)"/>
            <path fill="#EB8B24" d="M156.916 57.956L162.32 43.354 168.088 51.656 162.089 55.574z" mask="url(#qam8oib55b)"/>
            <path fill="#E46954" d="M154.763 31.689L164.467 34.524 162.32 43.354z" mask="url(#qam8oib55b)"/>
            <path fill="#F2AD64" d="M156.916 57.956L162.32 43.354 147.841 55.149z" mask="url(#qam8oib55b)"/>
            <path fill="#F4B776" d="M139.213 55.095L143.146 52.741 147.841 55.149 140.291 61.804z" mask="url(#qam8oib55b)"/>
            <path fill="#EF9D47" d="M155.61 39.786s-1.708 5.03-2.704 6.436c-.996 1.405-5.068 2.884-5.703 4.433-.634 1.549-4.058 2.087-4.058 2.087l4.695 2.407 14.48-11.795-6.71-3.568z" mask="url(#qam8oib55b)"/>
            <path fill="#FEFEFE" d="M140.29 61.804c.055.01.147.02.284.002 13.332-1.406 24.513-7.123 31.49-16.1 5.687-7.313 7.983-16.073 6.639-25.33-2.9-14.926-15.23-20.155-26.161-18.703-5.658.86-10.561 3.774-13.79 8.2-2.927 4.016-4.112 8.876-3.338 13.687l.002.001c1.42 8.94 9.53 15.746 19.283 16.183l.91.041-.251.877c-2.746 9.585-9.702 12.674-16.145 14.433l1.078 6.71zm.132 1.451c-1.02 0-1.44-.648-1.52-1.024l-1.173-6.832c-.09-.51.122-1.386 1.08-1.686 5.88-1.605 12.188-4.36 14.9-12.59-10.016-.843-18.232-8.007-19.715-17.335-.838-5.19.439-10.434 3.597-14.762 3.455-4.742 8.693-7.859 14.749-8.778 11.598-1.546 24.698 4.005 27.783 19.887 1.405 9.69-.99 18.824-6.92 26.454-7.223 9.29-18.753 15.201-32.47 16.647-.108.013-.213.02-.311.02z" mask="url(#qam8oib55b)"/>
            <path fill="#DB2C29" d="M154.763 31.628L162.32 43.355 155.609 39.785z" mask="url(#qam8oib55b)"/>
        </g>
    </g>
</svg>
